<mxfile host="app.diagrams.net" modified="2022-08-31T15:54:32.937Z" agent="5.0 (Macintosh)" etag="K4IaPsaY_ShQfz_ktWT1" version="20.2.7" type="github">
  <diagram id="n5MbRw6xe89q9QhrDOGg" name="Page-1">
    <mxGraphModel dx="1090" dy="629" grid="1" gridSize="10" guides="1" tooltips="1" connect="1" arrows="1" fold="1" page="1" pageScale="1" pageWidth="850" pageHeight="1100" math="0" shadow="0">
      <root>
        <mxCell id="0" />
        <mxCell id="1" parent="0" />
        <mxCell id="rD7hm1BNS9NW53Ee5VcL-30" value="" style="rounded=0;whiteSpace=wrap;html=1;" vertex="1" parent="1">
          <mxGeometry x="820" y="116" width="180" height="104" as="geometry" />
        </mxCell>
        <mxCell id="rD7hm1BNS9NW53Ee5VcL-46" style="edgeStyle=orthogonalEdgeStyle;rounded=0;orthogonalLoop=1;jettySize=auto;html=1;entryX=0.5;entryY=0;entryDx=0;entryDy=0;" edge="1" parent="1" source="rD7hm1BNS9NW53Ee5VcL-3" target="rD7hm1BNS9NW53Ee5VcL-5">
          <mxGeometry relative="1" as="geometry" />
        </mxCell>
        <mxCell id="rD7hm1BNS9NW53Ee5VcL-62" style="edgeStyle=orthogonalEdgeStyle;rounded=0;orthogonalLoop=1;jettySize=auto;html=1;" edge="1" parent="1" source="rD7hm1BNS9NW53Ee5VcL-3" target="rD7hm1BNS9NW53Ee5VcL-8">
          <mxGeometry relative="1" as="geometry" />
        </mxCell>
        <mxCell id="rD7hm1BNS9NW53Ee5VcL-3" value="Odyssey" style="rounded=0;whiteSpace=wrap;html=1;fillColor=#d5e8d4;strokeColor=#82b366;" vertex="1" parent="1">
          <mxGeometry x="330" y="70" width="120" height="60" as="geometry" />
        </mxCell>
        <mxCell id="rD7hm1BNS9NW53Ee5VcL-45" style="edgeStyle=orthogonalEdgeStyle;rounded=0;orthogonalLoop=1;jettySize=auto;html=1;entryX=0.5;entryY=1;entryDx=0;entryDy=0;" edge="1" parent="1" source="rD7hm1BNS9NW53Ee5VcL-4" target="rD7hm1BNS9NW53Ee5VcL-5">
          <mxGeometry relative="1" as="geometry" />
        </mxCell>
        <mxCell id="rD7hm1BNS9NW53Ee5VcL-4" value="Caishen" style="rounded=0;whiteSpace=wrap;html=1;fillColor=#d5e8d4;strokeColor=#82b366;" vertex="1" parent="1">
          <mxGeometry x="330" y="270" width="120" height="60" as="geometry" />
        </mxCell>
        <mxCell id="rD7hm1BNS9NW53Ee5VcL-12" style="edgeStyle=orthogonalEdgeStyle;rounded=0;orthogonalLoop=1;jettySize=auto;html=1;entryX=0;entryY=0.5;entryDx=0;entryDy=0;" edge="1" parent="1" source="rD7hm1BNS9NW53Ee5VcL-5" target="rD7hm1BNS9NW53Ee5VcL-6">
          <mxGeometry relative="1" as="geometry" />
        </mxCell>
        <mxCell id="rD7hm1BNS9NW53Ee5VcL-5" value="FDP Aggregator" style="rounded=0;whiteSpace=wrap;html=1;fillColor=#dae8fc;strokeColor=#6c8ebf;" vertex="1" parent="1">
          <mxGeometry x="330" y="170" width="120" height="60" as="geometry" />
        </mxCell>
        <mxCell id="rD7hm1BNS9NW53Ee5VcL-13" style="edgeStyle=orthogonalEdgeStyle;rounded=0;orthogonalLoop=1;jettySize=auto;html=1;" edge="1" parent="1" source="rD7hm1BNS9NW53Ee5VcL-6" target="rD7hm1BNS9NW53Ee5VcL-7">
          <mxGeometry relative="1" as="geometry" />
        </mxCell>
        <mxCell id="rD7hm1BNS9NW53Ee5VcL-6" value="FDP Data Lake" style="rounded=0;whiteSpace=wrap;html=1;fillColor=#dae8fc;strokeColor=#6c8ebf;" vertex="1" parent="1">
          <mxGeometry x="490" y="170" width="120" height="60" as="geometry" />
        </mxCell>
        <mxCell id="rD7hm1BNS9NW53Ee5VcL-47" style="edgeStyle=orthogonalEdgeStyle;rounded=0;orthogonalLoop=1;jettySize=auto;html=1;" edge="1" parent="1" source="rD7hm1BNS9NW53Ee5VcL-7" target="rD7hm1BNS9NW53Ee5VcL-9">
          <mxGeometry relative="1" as="geometry" />
        </mxCell>
        <mxCell id="rD7hm1BNS9NW53Ee5VcL-7" value="FDP Data Index" style="rounded=0;whiteSpace=wrap;html=1;fillColor=#dae8fc;strokeColor=#6c8ebf;" vertex="1" parent="1">
          <mxGeometry x="640" y="170" width="120" height="60" as="geometry" />
        </mxCell>
        <mxCell id="rD7hm1BNS9NW53Ee5VcL-8" value="FDPGetFeeDetailsService" style="rounded=0;whiteSpace=wrap;html=1;fillColor=#fff2cc;strokeColor=#d6b656;" vertex="1" parent="1">
          <mxGeometry x="570" y="70" width="190" height="60" as="geometry" />
        </mxCell>
        <mxCell id="rD7hm1BNS9NW53Ee5VcL-9" value="FCEARestService" style="rounded=0;whiteSpace=wrap;html=1;fillColor=#fff2cc;strokeColor=#d6b656;" vertex="1" parent="1">
          <mxGeometry x="570" y="270" width="190" height="60" as="geometry" />
        </mxCell>
        <mxCell id="rD7hm1BNS9NW53Ee5VcL-19" value="feeData" style="edgeStyle=orthogonalEdgeStyle;rounded=0;orthogonalLoop=1;jettySize=auto;html=1;entryX=1;entryY=0.5;entryDx=0;entryDy=0;dashed=1;" edge="1" parent="1">
          <mxGeometry relative="1" as="geometry">
            <mxPoint x="960" y="292" as="sourcePoint" />
            <mxPoint x="760" y="292" as="targetPoint" />
          </mxGeometry>
        </mxCell>
        <mxCell id="rD7hm1BNS9NW53Ee5VcL-16" value="FIFA" style="rounded=0;whiteSpace=wrap;html=1;fillColor=#f8cecc;strokeColor=#b85450;" vertex="1" parent="1">
          <mxGeometry x="960" y="270" width="120" height="60" as="geometry" />
        </mxCell>
        <mxCell id="rD7hm1BNS9NW53Ee5VcL-28" style="edgeStyle=orthogonalEdgeStyle;rounded=0;orthogonalLoop=1;jettySize=auto;html=1;entryX=1;entryY=0.75;entryDx=0;entryDy=0;dashed=1;exitX=0;exitY=0.5;exitDx=0;exitDy=0;" edge="1" parent="1" source="rD7hm1BNS9NW53Ee5VcL-30" target="rD7hm1BNS9NW53Ee5VcL-8">
          <mxGeometry relative="1" as="geometry">
            <mxPoint x="865" y="158.5" as="sourcePoint" />
          </mxGeometry>
        </mxCell>
        <mxCell id="rD7hm1BNS9NW53Ee5VcL-23" value="HCP" style="rounded=0;whiteSpace=wrap;html=1;fillColor=#f8cecc;strokeColor=#b85450;" vertex="1" parent="1">
          <mxGeometry x="838" y="140.5" width="102" height="49.5" as="geometry" />
        </mxCell>
        <mxCell id="rD7hm1BNS9NW53Ee5VcL-24" value="HCP" style="rounded=0;whiteSpace=wrap;html=1;fillColor=#f8cecc;strokeColor=#b85450;" vertex="1" parent="1">
          <mxGeometry x="853" y="153" width="107" height="47" as="geometry" />
        </mxCell>
        <mxCell id="rD7hm1BNS9NW53Ee5VcL-25" value="HCP" style="rounded=0;whiteSpace=wrap;html=1;fillColor=#f8cecc;strokeColor=#b85450;" vertex="1" parent="1">
          <mxGeometry x="870" y="160.5" width="100" height="49.5" as="geometry" />
        </mxCell>
        <mxCell id="rD7hm1BNS9NW53Ee5VcL-29" style="edgeStyle=orthogonalEdgeStyle;rounded=0;orthogonalLoop=1;jettySize=auto;html=1;entryX=0.5;entryY=0;entryDx=0;entryDy=0;dashed=1;" edge="1" parent="1" source="rD7hm1BNS9NW53Ee5VcL-26" target="rD7hm1BNS9NW53Ee5VcL-8">
          <mxGeometry relative="1" as="geometry" />
        </mxCell>
        <mxCell id="rD7hm1BNS9NW53Ee5VcL-26" value="FeeServiceProxyService" style="rounded=0;whiteSpace=wrap;html=1;fillColor=#f8cecc;strokeColor=#b85450;" vertex="1" parent="1">
          <mxGeometry x="830" y="20" width="170" height="60" as="geometry" />
        </mxCell>
        <mxCell id="rD7hm1BNS9NW53Ee5VcL-51" style="edgeStyle=orthogonalEdgeStyle;rounded=0;orthogonalLoop=1;jettySize=auto;html=1;dashed=1;" edge="1" parent="1" source="rD7hm1BNS9NW53Ee5VcL-31" target="rD7hm1BNS9NW53Ee5VcL-26">
          <mxGeometry relative="1" as="geometry">
            <Array as="points">
              <mxPoint x="1050" y="60" />
              <mxPoint x="1050" y="60" />
            </Array>
          </mxGeometry>
        </mxCell>
        <mxCell id="rD7hm1BNS9NW53Ee5VcL-31" value="" style="rounded=0;whiteSpace=wrap;html=1;" vertex="1" parent="1">
          <mxGeometry x="1060" width="170" height="90" as="geometry" />
        </mxCell>
        <mxCell id="rD7hm1BNS9NW53Ee5VcL-32" value="NAWS Clients" style="text;html=1;strokeColor=none;fillColor=none;align=center;verticalAlign=middle;whiteSpace=wrap;rounded=0;" vertex="1" parent="1">
          <mxGeometry x="950" y="123" width="60" height="30" as="geometry" />
        </mxCell>
        <mxCell id="rD7hm1BNS9NW53Ee5VcL-34" value="MAWS Clients" style="text;html=1;strokeColor=none;fillColor=none;align=center;verticalAlign=middle;whiteSpace=wrap;rounded=0;" vertex="1" parent="1">
          <mxGeometry x="1170" y="10" width="60" height="30" as="geometry" />
        </mxCell>
        <mxCell id="rD7hm1BNS9NW53Ee5VcL-39" value="" style="endArrow=classic;html=1;rounded=0;dashed=1;entryX=1;entryY=0.25;entryDx=0;entryDy=0;exitX=0;exitY=0.25;exitDx=0;exitDy=0;" edge="1" parent="1">
          <mxGeometry width="50" height="50" relative="1" as="geometry">
            <mxPoint x="960" y="277" as="sourcePoint" />
            <mxPoint x="760" y="277" as="targetPoint" />
          </mxGeometry>
        </mxCell>
        <mxCell id="rD7hm1BNS9NW53Ee5VcL-40" value="outBoundHistory" style="edgeLabel;html=1;align=center;verticalAlign=middle;resizable=0;points=[];" vertex="1" connectable="0" parent="rD7hm1BNS9NW53Ee5VcL-39">
          <mxGeometry x="-0.2123" y="-2" relative="1" as="geometry">
            <mxPoint as="offset" />
          </mxGeometry>
        </mxCell>
        <mxCell id="rD7hm1BNS9NW53Ee5VcL-41" value="" style="endArrow=classic;html=1;rounded=0;dashed=1;entryX=1;entryY=0.75;entryDx=0;entryDy=0;exitX=0;exitY=0.75;exitDx=0;exitDy=0;" edge="1" parent="1">
          <mxGeometry width="50" height="50" relative="1" as="geometry">
            <mxPoint x="960" y="309" as="sourcePoint" />
            <mxPoint x="760" y="309" as="targetPoint" />
          </mxGeometry>
        </mxCell>
        <mxCell id="rD7hm1BNS9NW53Ee5VcL-42" value="fee/transaction" style="edgeLabel;html=1;align=center;verticalAlign=middle;resizable=0;points=[];" vertex="1" connectable="0" parent="rD7hm1BNS9NW53Ee5VcL-41">
          <mxGeometry x="-0.2" y="-1" relative="1" as="geometry">
            <mxPoint as="offset" />
          </mxGeometry>
        </mxCell>
        <mxCell id="rD7hm1BNS9NW53Ee5VcL-43" value="" style="rounded=0;whiteSpace=wrap;html=1;fillColor=#f8cecc;strokeColor=#b85450;" vertex="1" parent="1">
          <mxGeometry x="1080" y="30" width="90" height="40" as="geometry" />
        </mxCell>
        <mxCell id="rD7hm1BNS9NW53Ee5VcL-50" value="Feenix" style="rounded=0;whiteSpace=wrap;html=1;fillColor=#f8cecc;strokeColor=#b85450;" vertex="1" parent="1">
          <mxGeometry x="1090" y="40" width="90" height="40" as="geometry" />
        </mxCell>
        <mxCell id="rD7hm1BNS9NW53Ee5VcL-52" value="Data Source" style="rounded=0;whiteSpace=wrap;html=1;fillColor=#d5e8d4;strokeColor=#82b366;" vertex="1" parent="1">
          <mxGeometry x="1120" y="141.25" width="100" height="39.5" as="geometry" />
        </mxCell>
        <mxCell id="rD7hm1BNS9NW53Ee5VcL-53" value="" style="endArrow=classic;html=1;rounded=0;dashed=1;entryX=1;entryY=0.75;entryDx=0;entryDy=0;exitX=0;exitY=0.75;exitDx=0;exitDy=0;" edge="1" parent="1">
          <mxGeometry width="50" height="50" relative="1" as="geometry">
            <mxPoint x="959" y="324" as="sourcePoint" />
            <mxPoint x="759" y="324" as="targetPoint" />
          </mxGeometry>
        </mxCell>
        <mxCell id="rD7hm1BNS9NW53Ee5VcL-54" value="feeDataBreakdown" style="edgeLabel;html=1;align=center;verticalAlign=middle;resizable=0;points=[];" vertex="1" connectable="0" parent="rD7hm1BNS9NW53Ee5VcL-53">
          <mxGeometry x="-0.2" y="-1" relative="1" as="geometry">
            <mxPoint as="offset" />
          </mxGeometry>
        </mxCell>
        <mxCell id="rD7hm1BNS9NW53Ee5VcL-55" value="FDP Storage" style="rounded=0;whiteSpace=wrap;html=1;fillColor=#dae8fc;strokeColor=#6c8ebf;" vertex="1" parent="1">
          <mxGeometry x="1120" y="191" width="100" height="39.5" as="geometry" />
        </mxCell>
        <mxCell id="rD7hm1BNS9NW53Ee5VcL-56" value="API Clients" style="rounded=0;whiteSpace=wrap;html=1;fillColor=#f8cecc;strokeColor=#b85450;" vertex="1" parent="1">
          <mxGeometry x="1120" y="290.5" width="100" height="39.5" as="geometry" />
        </mxCell>
        <mxCell id="rD7hm1BNS9NW53Ee5VcL-59" value="Data flow" style="endArrow=classic;html=1;rounded=0;" edge="1" parent="1">
          <mxGeometry width="50" height="50" relative="1" as="geometry">
            <mxPoint x="1150" y="110" as="sourcePoint" />
            <mxPoint x="1220" y="110" as="targetPoint" />
          </mxGeometry>
        </mxCell>
        <mxCell id="rD7hm1BNS9NW53Ee5VcL-60" value="Call" style="endArrow=classic;html=1;rounded=0;dashed=1;" edge="1" parent="1">
          <mxGeometry width="50" height="50" relative="1" as="geometry">
            <mxPoint x="1150" y="130" as="sourcePoint" />
            <mxPoint x="1220" y="130" as="targetPoint" />
          </mxGeometry>
        </mxCell>
        <mxCell id="rD7hm1BNS9NW53Ee5VcL-61" value="API Service" style="rounded=0;whiteSpace=wrap;html=1;fillColor=#fff2cc;strokeColor=#d6b656;" vertex="1" parent="1">
          <mxGeometry x="1120" y="240.5" width="100" height="39.5" as="geometry" />
        </mxCell>
      </root>
    </mxGraphModel>
  </diagram>
</mxfile>
